<svg xmlns="http://www.w3.org/2000/svg" width="512" height="512" viewBox="0 0 512 512">
  <g>
    <path d="M255.32,297.16a27.71,27.71,0,1,0-27.71-27.71A27.74,27.74,0,0,0,255.32,297.16Z" style="fill: #fff"/>
    <path d="M269.62,327.14h-28.4a50.81,50.81,0,0,0-50.75,50.75v1.48a140.45,140.45,0,0,0,129.9,0v-1.48A50.8,50.8,0,0,0,269.62,327.14Z" style="fill: #fff"/>
    <line x1="120.65" y1="491.3" x2="120.65" y2="491.3" style="fill: #fff"/>
    <line x1="491.3" y1="120.64" x2="491.3" y2="120.64" style="fill: #fff"/>
    <line x1="491.3" y1="491.3" x2="491.3" y2="491.3" style="fill: #fff"/>
    <path d="M491.3,391.36a70.7,70.7,0,0,0-88.22-9.47l-38.72-38.72a139.9,139.9,0,0,0,.1-175.4L403,130A70.68,70.68,0,0,0,512,70.67,70.68,70.68,0,1,0,381.81,108.8l-38.52,37.75A139.94,139.94,0,0,0,168.2,146l-38-37.25A70.68,70.68,0,1,0,109,130l37.86,37.1a139.93,139.93,0,0,0,.1,176.68l-38.07,38.08a70.71,70.71,0,1,0,21.19,21.2l30.58-30.58a80.87,80.87,0,0,1,48.36-68.65,57.7,57.7,0,1,1,92.58-.07,80.88,80.88,0,0,1,48.42,67.46l31.84,31.83A70.68,70.68,0,1,0,491.3,391.36Z" style="fill: #fff"/>
  </g>
</svg>
